<svg width="16" height="16" viewBox="0 0 16 16" fill="none" xmlns="http://www.w3.org/2000/svg">
<path fill-rule="evenodd" clip-rule="evenodd" d="M15.197 0.803004C15.4007 1.00673 15.4698 1.30916 15.3746 1.5811L10.7079 14.9144C10.6063 15.2047 10.3378 15.4035 10.0306 15.416C9.72333 15.4286 9.43955 15.2523 9.31465 14.9713L6.76514 9.23487L1.02874 6.68536C0.747733 6.56047 0.571435 6.27669 0.583971 5.96943C0.596506 5.66217 0.795334 5.39369 1.08558 5.29211L14.4189 0.62544C14.6909 0.530261 14.9933 0.599275 15.197 0.803004ZM8.22791 8.83277L9.91706 12.6334L12.8731 4.1876L8.22791 8.83277ZM11.8124 3.12694L3.36665 6.08295L7.16725 7.77211L11.8124 3.12694Z" fill="#434343"/>
</svg>
