<svg width="16" height="16" viewBox="0 0 16 16" fill="none" xmlns="http://www.w3.org/2000/svg">
<g clip-path="url(#clip0)">
<path d="M6.37288 4.88136H0.677966C0.498158 4.88136 0.325715 4.80993 0.198572 4.68278C0.0714284 4.55564 0 4.3832 0 4.20339L0 0.677966C0 0.498158 0.0714284 0.325715 0.198572 0.198572C0.325715 0.0714284 0.498158 0 0.677966 0L6.37288 0C6.55269 0 6.72513 0.0714284 6.85228 0.198572C6.97942 0.325715 7.05085 0.498158 7.05085 0.677966V4.20339C7.05085 4.3832 6.97942 4.55564 6.85228 4.68278C6.72513 4.80993 6.55269 4.88136 6.37288 4.88136ZM1.35593 3.52542H5.69492V1.35593H1.35593V3.52542ZM15.322 9.49153H9.62712C9.44731 9.49153 9.27487 9.4201 9.14772 9.29295C9.02058 9.16581 8.94915 8.99337 8.94915 8.81356V0.677966C8.94915 0.498158 9.02058 0.325715 9.14772 0.198572C9.27487 0.0714284 9.44731 0 9.62712 0L15.322 0C15.5018 0 15.6743 0.0714284 15.8014 0.198572C15.9286 0.325715 16 0.498158 16 0.677966V8.81356C16 8.99337 15.9286 9.16581 15.8014 9.29295C15.6743 9.4201 15.5018 9.49153 15.322 9.49153ZM10.3051 8.13559H14.6441V1.35593H10.3051V8.13559ZM6.37288 16H0.677966C0.498158 16 0.325715 15.9286 0.198572 15.8014C0.0714284 15.6743 0 15.5018 0 15.322L0 7.18644C0 7.00663 0.0714284 6.83419 0.198572 6.70705C0.325715 6.5799 0.498158 6.50847 0.677966 6.50847H6.37288C6.55269 6.50847 6.72513 6.5799 6.85228 6.70705C6.97942 6.83419 7.05085 7.00663 7.05085 7.18644V15.322C7.05085 15.5018 6.97942 15.6743 6.85228 15.8014C6.72513 15.9286 6.55269 16 6.37288 16ZM1.35593 14.6441H5.69492V7.86441H1.35593V14.6441ZM15.322 16H9.62712C9.44731 16 9.27487 15.9286 9.14772 15.8014C9.02058 15.6743 8.94915 15.5018 8.94915 15.322V11.7966C8.94915 11.6168 9.02058 11.4444 9.14772 11.3172C9.27487 11.1901 9.44731 11.1186 9.62712 11.1186H15.322C15.5018 11.1186 15.6743 11.1901 15.8014 11.3172C15.9286 11.4444 16 11.6168 16 11.7966V15.322C16 15.5018 15.9286 15.6743 15.8014 15.8014C15.6743 15.9286 15.5018 16 15.322 16ZM10.3051 14.6441H14.6441V12.4746H10.3051V14.6441Z" fill="#2D45BF"/>
</g>
<defs>
<clipPath id="clip0">
<rect width="16" height="16" fill="white"/>
</clipPath>
</defs>
</svg>
