<svg width="24" height="24" viewBox="0 0 24 24" fill="none" xmlns="http://www.w3.org/2000/svg">
<path d="M21.9 7.47059H2.1C1.80826 7.47059 1.52847 7.34044 1.32218 7.10878C1.11589 6.87712 1 6.56291 1 6.23529C1 5.90767 1.11589 5.59347 1.32218 5.36181C1.52847 5.13015 1.80826 5 2.1 5H21.9C22.1917 5 22.4715 5.13015 22.6778 5.36181C22.8841 5.59347 23 5.90767 23 6.23529C23 6.56291 22.8841 6.87712 22.6778 7.10878C22.4715 7.34044 22.1917 7.47059 21.9 7.47059ZM18.2333 13.2353H5.76667C5.47493 13.2353 5.19514 13.1051 4.98885 12.8735C4.78256 12.6418 4.66667 12.3276 4.66667 12C4.66667 11.6724 4.78256 11.3582 4.98885 11.1265C5.19514 10.8949 5.47493 10.7647 5.76667 10.7647H18.2333C18.5251 10.7647 18.8049 10.8949 19.0112 11.1265C19.2174 11.3582 19.3333 11.6724 19.3333 12C19.3333 12.3276 19.2174 12.6418 19.0112 12.8735C18.8049 13.1051 18.5251 13.2353 18.2333 13.2353ZM13.8333 19H10.1667C9.87493 19 9.59514 18.8699 9.38885 18.6382C9.18256 18.4065 9.06667 18.0923 9.06667 17.7647C9.06667 17.4371 9.18256 17.1229 9.38885 16.8912C9.59514 16.6596 9.87493 16.5294 10.1667 16.5294H13.8333C14.1251 16.5294 14.4049 16.6596 14.6112 16.8912C14.8174 17.1229 14.9333 17.4371 14.9333 17.7647C14.9333 18.0923 14.8174 18.4065 14.6112 18.6382C14.4049 18.8699 14.1251 19 13.8333 19Z" fill="white"/>
</svg>
