<svg width="16" height="16" viewBox="0 0 16 16" fill="none" xmlns="http://www.w3.org/2000/svg">
<g clip-path="url(#clip0)">
<path d="M9.11186 14.779C7.67349 14.7825 6.27076 14.3316 5.10373 13.4908C5.02705 13.4408 4.9613 13.3758 4.91043 13.2997C4.85956 13.2236 4.82463 13.138 4.80775 13.048C4.79086 12.958 4.79238 12.8656 4.81219 12.7762C4.83201 12.6868 4.86971 12.6024 4.92304 12.528C4.97637 12.4536 5.04421 12.3908 5.12248 12.3433C5.20075 12.2958 5.28782 12.2647 5.37845 12.2518C5.46907 12.2389 5.56137 12.2444 5.64979 12.2682C5.7382 12.2919 5.82089 12.3333 5.89288 12.3898C6.95276 13.1531 8.24853 13.5168 9.55081 13.4165C10.8531 13.3162 12.0779 12.7584 13.0083 11.8417C13.9388 10.9251 14.515 9.70883 14.6348 8.40821C14.7546 7.10758 14.4104 5.8065 13.6631 4.73529C12.9158 3.66408 11.8135 2.89184 10.5515 2.55527C9.28947 2.21871 7.94906 2.33952 6.76755 2.89633C5.58605 3.45314 4.63965 4.41002 4.09591 5.5976C3.55217 6.78517 3.44614 8.12683 3.79661 9.38507C3.82065 9.4709 3.82755 9.56062 3.81691 9.64911C3.80627 9.7376 3.77831 9.82314 3.73462 9.90082C3.69093 9.97851 3.63237 10.0468 3.56227 10.1019C3.49218 10.1569 3.41193 10.1976 3.3261 10.2217C3.24027 10.2457 3.15055 10.2526 3.06206 10.242C2.97357 10.2313 2.88804 10.2034 2.81035 10.1597C2.65345 10.0715 2.53804 9.92451 2.48949 9.75117C2.09913 8.36112 2.15526 6.88356 2.64996 5.52713C3.14465 4.1707 4.05292 3.00392 5.24651 2.19154C6.44011 1.37916 7.85873 0.962222 9.30207 0.999594C10.7454 1.03697 12.1406 1.52676 13.2905 2.39982C14.4405 3.27288 15.2871 4.4851 15.711 5.86532C16.1348 7.24553 16.1144 8.72401 15.6526 10.092C15.1909 11.46 14.311 12.6484 13.1374 13.4894C11.9638 14.3304 10.5557 14.7815 9.11186 14.779Z" fill="#434343"/>
<path d="M10.9044 10.8088C10.7891 10.8081 10.676 10.7772 10.5763 10.7193L8.77287 9.67795C8.66983 9.61878 8.58422 9.53346 8.5247 9.43061C8.46518 9.32776 8.43386 9.21102 8.43389 9.09219V5.64541C8.43389 5.4656 8.50532 5.29316 8.63246 5.16602C8.75961 5.03887 8.93205 4.96745 9.11186 4.96745C9.29166 4.96745 9.46411 5.03887 9.59125 5.16602C9.71839 5.29316 9.78982 5.4656 9.78982 5.64541V8.70439L11.2434 9.54507C11.372 9.62 11.4723 9.73514 11.529 9.87274C11.5856 10.0103 11.5954 10.1628 11.5569 10.3065C11.5183 10.4502 11.4335 10.5773 11.3156 10.668C11.1977 10.7588 11.0532 10.8083 10.9044 10.8088ZM3.12948 10.3288C2.94961 10.3288 2.77704 10.2577 2.64948 10.1308L0.208806 7.69016C0.144148 7.62752 0.0926104 7.55264 0.0572007 7.46988C0.0217911 7.38712 0.00321832 7.29813 0.00256602 7.20811C0.00191372 7.11809 0.019195 7.02885 0.0534015 6.94558C0.0876079 6.86231 0.138055 6.78669 0.201798 6.72313C0.265542 6.65956 0.341306 6.60933 0.42467 6.57536C0.508035 6.54139 0.597329 6.52436 0.687345 6.52527C0.77736 6.52617 0.866294 6.545 0.948956 6.58064C1.03162 6.61629 1.10636 6.66803 1.16881 6.73287L3.14033 8.70439L5.11457 6.73287C5.24373 6.61741 5.41219 6.55578 5.58537 6.56062C5.75854 6.56547 5.92329 6.63643 6.0458 6.75893C6.1683 6.88143 6.23925 7.04618 6.2441 7.21936C6.24895 7.39254 6.18732 7.561 6.07186 7.69016L3.63118 10.1444C3.56451 10.2077 3.48562 10.2566 3.39935 10.2884C3.31309 10.3201 3.22126 10.3338 3.12948 10.3288Z" fill="#434343"/>
</g>
<defs>
<clipPath id="clip0">
<rect width="16" height="16" fill="white"/>
</clipPath>
</defs>
</svg>
