<svg width="16" height="16" viewBox="0 0 16 16" fill="none" xmlns="http://www.w3.org/2000/svg">
<g clip-path="url(#clip0)">
<path d="M9.11176 14.779C7.67339 14.7825 6.27065 14.3316 5.10362 13.4908C5.02695 13.4408 4.96119 13.3758 4.91032 13.2997C4.85945 13.2236 4.82452 13.138 4.80764 13.048C4.79076 12.958 4.79227 12.8656 4.81208 12.7762C4.8319 12.6868 4.86961 12.6024 4.92294 12.528C4.97626 12.4536 5.04411 12.3908 5.12237 12.3433C5.20064 12.2958 5.28771 12.2647 5.37834 12.2518C5.46897 12.2389 5.56127 12.2444 5.64968 12.2682C5.73809 12.2919 5.82079 12.3333 5.89277 12.3898C6.95265 13.1531 8.24842 13.5168 9.5507 13.4165C10.853 13.3162 12.0778 12.7584 13.0082 11.8417C13.9387 10.9251 14.5149 9.70883 14.6347 8.40821C14.7545 7.10758 14.4103 5.8065 13.663 4.73529C12.9157 3.66408 11.8134 2.89184 10.5514 2.55527C9.28936 2.21871 7.94895 2.33952 6.76744 2.89633C5.58594 3.45314 4.63955 4.41002 4.0958 5.5976C3.55206 6.78517 3.44604 8.12683 3.7965 9.38507C3.82054 9.4709 3.82744 9.56062 3.8168 9.64911C3.80617 9.7376 3.77821 9.82314 3.73451 9.90082C3.69082 9.97851 3.63226 10.0468 3.56217 10.1019C3.49207 10.1569 3.41182 10.1976 3.32599 10.2217C3.24017 10.2457 3.15045 10.2526 3.06195 10.242C2.97346 10.2313 2.88793 10.2034 2.81024 10.1597C2.65335 10.0715 2.53793 9.92451 2.48938 9.75117C2.09902 8.36112 2.15515 6.88356 2.64985 5.52713C3.14455 4.1707 4.05281 3.00392 5.24641 2.19154C6.44 1.37916 7.85862 0.962222 9.30196 0.999594C10.7453 1.03697 12.1404 1.52676 13.2904 2.39982C14.4404 3.27288 15.287 4.4851 15.7109 5.86532C16.1347 7.24553 16.1143 8.72401 15.6525 10.092C15.1907 11.46 14.3109 12.6484 13.1373 13.4894C11.9637 14.3304 10.5556 14.7815 9.11176 14.779Z" fill="#2D45BF"/>
<path d="M10.9043 10.8088C10.789 10.8081 10.6759 10.7772 10.5762 10.7193L8.77277 9.67795C8.66972 9.61878 8.58411 9.53346 8.52459 9.43061C8.46507 9.32776 8.43375 9.21102 8.43378 9.09219V5.64541C8.43378 5.4656 8.50521 5.29316 8.63236 5.16602C8.7595 5.03887 8.93194 4.96745 9.11175 4.96745C9.29156 4.96745 9.464 5.03887 9.59114 5.16602C9.71829 5.29316 9.78971 5.4656 9.78971 5.64541V8.70439L11.2433 9.54507C11.3718 9.62 11.4722 9.73514 11.5288 9.87274C11.5855 10.0103 11.5953 10.1628 11.5567 10.3065C11.5182 10.4502 11.4334 10.5773 11.3155 10.668C11.1976 10.7588 11.0531 10.8083 10.9043 10.8088ZM3.12938 10.3288C2.9495 10.3288 2.77694 10.2577 2.64938 10.1308L0.208699 7.69016C0.144041 7.62752 0.0925035 7.55264 0.0570939 7.46988C0.0216843 7.38712 0.00311151 7.29813 0.00245921 7.20811C0.0018069 7.11809 0.0190881 7.02885 0.0532946 6.94558C0.0875011 6.86231 0.137948 6.78669 0.201692 6.72313C0.265435 6.65956 0.3412 6.60933 0.424564 6.57536C0.507928 6.54139 0.597223 6.52436 0.687238 6.52527C0.777253 6.52617 0.866187 6.545 0.94885 6.58064C1.03151 6.61629 1.10625 6.66803 1.1687 6.73287L3.14022 8.70439L5.11446 6.73287C5.24362 6.61741 5.41208 6.55578 5.58526 6.56062C5.75844 6.56547 5.92319 6.63643 6.04569 6.75893C6.16819 6.88143 6.23915 7.04618 6.24399 7.21936C6.24884 7.39254 6.18721 7.561 6.07175 7.69016L3.63107 10.1444C3.5644 10.2077 3.48551 10.2566 3.39925 10.2884C3.31298 10.3201 3.22115 10.3338 3.12938 10.3288Z" fill="#2D45BF"/>
</g>
<defs>
<clipPath id="clip0">
<rect width="16" height="16" fill="white"/>
</clipPath>
</defs>
</svg>
