<svg width="16" height="16" viewBox="0 0 16 16" fill="none" xmlns="http://www.w3.org/2000/svg">
<g clip-path="url(#clip0)">
<path d="M12.1842 13.2878H2.81959C2.48932 13.2884 2.16513 13.1991 1.88192 13.0297C1.5987 12.8602 1.36717 12.6169 1.21224 12.326C1.05731 12.0351 0.984847 11.7076 1.00264 11.3787C1.02043 11.0497 1.12781 10.7319 1.31321 10.4593L1.99843 9.45048C2.17679 9.18703 2.27153 8.87615 2.27034 8.55828V5.342C2.25056 3.9825 2.75793 2.66789 3.68658 1.67249C4.61523 0.677085 5.89342 0.0777826 7.25444 -0.000367581C7.96163 -0.0337821 8.66826 0.0763859 9.33149 0.323458C9.99472 0.570529 10.6007 0.949358 11.1128 1.43698C11.6248 1.9246 12.0323 2.51085 12.3104 3.16019C12.5885 3.80954 12.7315 4.50844 12.7307 5.21455V8.55828C12.7295 8.87615 12.8242 9.18703 13.0026 9.45048L13.6878 10.4593C13.8731 10.7317 13.9805 11.0493 13.9984 11.378C14.0163 11.7067 13.944 12.034 13.7894 12.3248C13.6348 12.6156 13.4037 12.8589 13.1209 13.0286C12.838 13.1983 12.5142 13.2879 12.1842 13.2878ZM7.50188 1.35556H7.31154C6.3011 1.41897 5.35419 1.86893 4.66828 2.61163C3.98236 3.35434 3.61037 4.33244 3.62989 5.342V8.55828C3.63088 9.14687 3.45469 9.7222 3.12413 10.2098L2.43892 11.2186C2.39268 11.2875 2.36604 11.3677 2.36186 11.4505C2.35768 11.5333 2.3761 11.6157 2.41517 11.6889C2.45424 11.7621 2.51249 11.8233 2.58371 11.8661C2.65493 11.9089 2.73645 11.9316 2.81959 11.9318H12.1842C12.267 11.9326 12.3485 11.9105 12.4196 11.8679C12.4906 11.8253 12.5484 11.7639 12.5866 11.6905C12.6265 11.6172 12.6453 11.5344 12.6409 11.4511C12.6366 11.3679 12.6093 11.2874 12.5621 11.2186L11.8769 10.2098C11.5463 9.7222 11.3702 9.14687 11.3712 8.55828V5.21455C11.3712 4.19108 10.9635 3.20953 10.2379 2.48583C9.51224 1.76213 8.52807 1.35556 7.50188 1.35556Z" fill="#D35F5F"/>
<path d="M7.5019 16C6.60068 15.9993 5.73658 15.6419 5.09933 15.0064C4.46207 14.3708 4.10375 13.509 4.10303 12.6102C4.10303 12.4304 4.17465 12.2579 4.30213 12.1308C4.42961 12.0036 4.60251 11.9322 4.7828 11.9322C4.96309 11.9322 5.13599 12.0036 5.26347 12.1308C5.39096 12.2579 5.46258 12.4304 5.46258 12.6102C5.46258 13.1496 5.67743 13.6669 6.05988 14.0484C6.44233 14.4298 6.96104 14.6441 7.5019 14.6441C8.04276 14.6441 8.56147 14.4298 8.94392 14.0484C9.32636 13.6669 9.54122 13.1496 9.54122 12.6102C9.54122 12.4304 9.61284 12.2579 9.74032 12.1308C9.8678 12.0036 10.0407 11.9322 10.221 11.9322C10.4013 11.9322 10.5742 12.0036 10.7017 12.1308C10.8291 12.2579 10.9008 12.4304 10.9008 12.6102C10.8993 13.5088 10.5408 14.3702 9.90367 15.0056C9.26657 15.641 8.40289 15.9986 7.5019 16ZM7.5019 8.30916C7.41253 8.30952 7.32397 8.29223 7.24133 8.25828C7.1587 8.22434 7.08362 8.17441 7.02042 8.11139C6.95723 8.04836 6.90717 7.97348 6.87314 7.89106C6.8391 7.80865 6.82176 7.72033 6.82212 7.63119V4.37696C6.82212 4.19715 6.89374 4.0247 7.02122 3.89756C7.14871 3.77042 7.32161 3.69899 7.5019 3.69899C7.68218 3.69899 7.85509 3.77042 7.98257 3.89756C8.11005 4.0247 8.18167 4.19715 8.18167 4.37696V7.63119C8.18167 7.811 8.11005 7.98344 7.98257 8.11059C7.85509 8.23773 7.68218 8.30916 7.5019 8.30916ZM7.5019 10.6142C7.41253 10.6146 7.32397 10.5973 7.24133 10.5634C7.1587 10.5294 7.08362 10.4795 7.02042 10.4165C6.95723 10.3534 6.90717 10.2786 6.87314 10.1961C6.8391 10.1137 6.82176 10.0254 6.82212 9.93628V9.66509C6.82212 9.48528 6.89374 9.31284 7.02122 9.1857C7.14871 9.05855 7.32161 8.98713 7.5019 8.98713C7.68218 8.98713 7.85509 9.05855 7.98257 9.1857C8.11005 9.31284 8.18167 9.48528 8.18167 9.66509V9.93628C8.18167 10.1161 8.11005 10.2885 7.98257 10.4157C7.85509 10.5428 7.68218 10.6142 7.5019 10.6142Z" fill="#D35F5F"/>
</g>
<defs>
<clipPath id="clip0">
<rect width="16" height="16" fill="white"/>
</clipPath>
</defs>
</svg>
