<svg width="16" height="16" viewBox="0 0 16 16" fill="none" xmlns="http://www.w3.org/2000/svg">
<path fill-rule="evenodd" clip-rule="evenodd" d="M8 1.75C4.54822 1.75 1.75 4.54822 1.75 8C1.75 11.4518 4.54822 14.25 8 14.25C11.4518 14.25 14.25 11.4518 14.25 8C14.25 4.54822 11.4518 1.75 8 1.75ZM0.25 8C0.25 3.71979 3.71979 0.25 8 0.25C12.2802 0.25 15.75 3.71979 15.75 8C15.75 12.2802 12.2802 15.75 8 15.75C3.71979 15.75 0.25 12.2802 0.25 8ZM7.25 4.75C7.25 4.33579 7.58579 4 8 4H8.0075C8.42171 4 8.7575 4.33579 8.7575 4.75C8.7575 5.16421 8.42171 5.5 8.0075 5.5H8C7.58579 5.5 7.25 5.16421 7.25 4.75ZM8 6.5C8.41421 6.5 8.75 6.83579 8.75 7.25V11.25C8.75 11.6642 8.41421 12 8 12C7.58579 12 7.25 11.6642 7.25 11.25V7.25C7.25 6.83579 7.58579 6.5 8 6.5Z" fill="#2D45BF"/>
</svg>
