<svg width="16" height="16" viewBox="0 0 16 16" fill="none" xmlns="http://www.w3.org/2000/svg">
<path fill-rule="evenodd" clip-rule="evenodd" d="M16 8C16 12.4183 12.4183 16 8 16C3.58172 16 0 12.4183 0 8C0 3.58172 3.58172 0 8 0C12.4183 0 16 3.58172 16 8ZM14 8C14 11.3137 11.3137 14 8 14C6.83198 14 5.74192 13.6662 4.81997 13.0889L12.7266 4.30375C13.5244 5.32251 14 6.60572 14 8ZM3.3246 11.7607L11.2495 2.95527C10.3131 2.35081 9.1975 2 8 2C4.68629 2 2 4.68629 2 8C2 9.42387 2.49598 10.7319 3.3246 11.7607Z" fill="#D35F5F"/>
</svg>
