<svg width="16" height="16" viewBox="0 0 16 16" fill="none" xmlns="http://www.w3.org/2000/svg">
<path d="M7.99999 16C6.41774 16 4.87102 15.5308 3.55543 14.6517C2.23983 13.7727 1.21445 12.5233 0.608952 11.0615C0.00345101 9.59965 -0.154976 7.99111 0.153706 6.43927C0.462388 4.88742 1.22431 3.46195 2.34313 2.34313C3.46195 1.22431 4.88742 0.462388 6.43926 0.153706C7.99111 -0.154976 9.59965 0.00345101 11.0615 0.608952C12.5233 1.21445 13.7727 2.23983 14.6517 3.55543C15.5308 4.87102 16 6.41774 16 7.99999C15.9978 10.1211 15.1543 12.1546 13.6545 13.6545C12.1546 15.1543 10.1211 15.9978 7.99999 16ZM7.99999 1.35592C6.68591 1.35592 5.40135 1.74559 4.30874 2.47565C3.21613 3.20571 2.36454 4.24337 1.86167 5.45741C1.3588 6.67146 1.22722 8.00736 1.48358 9.29618C1.73995 10.585 2.37273 11.7689 3.30192 12.6981C4.23111 13.6272 5.41497 14.26 6.70379 14.5164C7.99262 14.7728 9.32852 14.6412 10.5426 14.1383C11.7566 13.6354 12.7943 12.7838 13.5243 11.6912C14.2544 10.5986 14.6441 9.31406 14.6441 7.99999C14.6419 6.23853 13.9412 4.54984 12.6957 3.3043C11.4501 2.05876 9.76144 1.35807 7.99999 1.35592Z" fill="#9E9E9E"/>
<path d="M5.28813 11.3898C5.19901 11.3901 5.11072 11.3728 5.02834 11.3388C4.94596 11.3049 4.87112 11.2549 4.80813 11.1919C4.68193 11.064 4.61118 10.8915 4.61118 10.7119C4.61118 10.5322 4.68193 10.3598 4.80813 10.2319L10.2319 4.80814C10.3592 4.68083 10.5318 4.60931 10.7119 4.60931C10.8919 4.60931 11.0646 4.68083 11.1919 4.80814C11.3192 4.93544 11.3907 5.1081 11.3907 5.28814C11.3907 5.46817 11.3192 5.64083 11.1919 5.76814L5.76813 11.1919C5.70514 11.2549 5.6303 11.3049 5.54792 11.3388C5.46553 11.3728 5.37724 11.3901 5.28813 11.3898Z" fill="#9E9E9E"/>
<path d="M10.7119 11.3898C10.6228 11.3901 10.5345 11.3728 10.4521 11.3388C10.3697 11.3049 10.2949 11.2549 10.2319 11.1919L4.80814 5.76814C4.68083 5.64083 4.60931 5.46817 4.60931 5.28814C4.60931 5.1081 4.68083 4.93544 4.80814 4.80814C4.93544 4.68083 5.1081 4.60931 5.28814 4.60931C5.46817 4.60931 5.64083 4.68083 5.76814 4.80814L11.1919 10.2319C11.3181 10.3598 11.3888 10.5322 11.3888 10.7119C11.3888 10.8915 11.3181 11.064 11.1919 11.1919C11.1289 11.2549 11.054 11.3049 10.9717 11.3388C10.8893 11.3728 10.801 11.3901 10.7119 11.3898Z" fill="#9E9E9E"/>
</svg>
