<svg width="16" height="17" viewBox="0 0 16 17" fill="none" xmlns="http://www.w3.org/2000/svg">
<g clip-path="url(#clip0)">
<path d="M8 16.5C6.41775 16.5 4.87103 16.0308 3.55544 15.1517C2.23985 14.2727 1.21447 13.0233 0.608967 11.5615C0.00346627 10.0996 -0.15496 8.49111 0.153721 6.93927C0.462403 5.38742 1.22433 3.96195 2.34315 2.84313C3.46197 1.72431 4.88743 0.962388 6.43928 0.653706C7.99113 0.345024 9.59966 0.503451 11.0615 1.10895C12.5233 1.71445 13.7727 2.73983 14.6518 4.05543C15.5308 5.37102 16 6.91774 16 8.49999C15.9978 10.6211 15.1543 12.6546 13.6545 14.1545C12.1547 15.6543 10.1211 16.4978 8 16.5ZM8 1.85592C6.68593 1.85592 5.40137 2.24559 4.30876 2.97565C3.21615 3.70571 2.36456 4.74337 1.86169 5.95741C1.35881 7.17146 1.22724 8.50736 1.4836 9.79618C1.73996 11.085 2.37275 12.2689 3.30194 13.1981C4.23113 14.1272 5.41499 14.76 6.70381 15.0164C7.99263 15.2728 9.32853 15.1412 10.5426 14.6383C11.7566 14.1354 12.7943 13.2838 13.5243 12.1912C14.2544 11.0986 14.6441 9.81406 14.6441 8.49999C14.6419 6.73853 13.9412 5.04984 12.6957 3.8043C11.4502 2.55876 9.76146 1.85807 8 1.85592Z" fill="#2D45BF"/>
<path d="M5.28804 11.8898C5.19892 11.8901 5.11063 11.8728 5.02825 11.8388C4.94587 11.8049 4.87102 11.7549 4.80804 11.6919C4.68184 11.564 4.61108 11.3915 4.61108 11.2119C4.61108 11.0322 4.68184 10.8598 4.80804 10.7319L10.2318 5.30814C10.3591 5.18083 10.5317 5.10931 10.7118 5.10931C10.8918 5.10931 11.0645 5.18083 11.1918 5.30814C11.3191 5.43544 11.3906 5.6081 11.3906 5.78814C11.3906 5.96817 11.3191 6.14083 11.1918 6.26814L5.76804 11.6919C5.70505 11.7549 5.63021 11.8049 5.54782 11.8388C5.46544 11.8728 5.37715 11.8901 5.28804 11.8898Z" fill="#2D45BF"/>
<path d="M10.7119 11.8898C10.6228 11.8901 10.5345 11.8728 10.4521 11.8388C10.3698 11.8049 10.2949 11.7549 10.2319 11.6919L4.8082 6.26814C4.68089 6.14083 4.60937 5.96817 4.60938 5.78814C4.60938 5.6081 4.68089 5.43544 4.8082 5.30814C4.9355 5.18083 5.10816 5.10931 5.2882 5.10931C5.46823 5.10931 5.64089 5.18083 5.7682 5.30814L11.1919 10.7319C11.3181 10.8598 11.3889 11.0322 11.3889 11.2119C11.3889 11.3915 11.3181 11.564 11.1919 11.6919C11.1289 11.7549 11.0541 11.8049 10.9717 11.8388C10.8893 11.8728 10.801 11.8901 10.7119 11.8898Z" fill="#2D45BF"/>
</g>
<defs>
<clipPath id="clip0">
<rect width="16" height="16" fill="white" transform="translate(0 0.5)"/>
</clipPath>
</defs>
</svg>
