<svg width="16" height="16" viewBox="0 0 16 16" fill="none" xmlns="http://www.w3.org/2000/svg">
<path d="M8.5 7.53125V3C8.5 2.73478 8.60536 2.48043 8.79289 2.29289C8.98043 2.10536 9.23478 2 9.5 2C9.76522 2 10.0196 2.10536 10.2071 2.29289C10.3946 2.48043 10.5 2.73478 10.5 3V10L11.6416 7.2525C11.9041 6.75375 12.5412 6.61187 13.0262 6.8875C13.5109 7.16281 13.6053 7.68593 13.3972 8.25L11.75 12.75C11.1159 14.2625 10 15.5 7.25 15.5C4.5 15.5 2.5 13.6688 2.5 10V4.5C2.5 4.23478 2.60536 3.98043 2.79289 3.79289C2.98043 3.60536 3.23478 3.5 3.5 3.5C3.76522 3.5 4.01957 3.60536 4.20711 3.79289C4.39464 3.98043 4.5 4.23478 4.5 4.5V8V2.5C4.5 2.23478 4.60536 1.98043 4.79289 1.79289C4.98043 1.60536 5.23478 1.5 5.5 1.5C5.76522 1.5 6.01957 1.60536 6.20711 1.79289C6.39464 1.98043 6.5 2.23478 6.5 2.5V7.5V1.5C6.5 1.23478 6.60536 0.98043 6.79289 0.792893C6.98043 0.605357 7.23478 0.5 7.5 0.5C7.76522 0.5 8.01957 0.605357 8.20711 0.792893C8.39464 0.98043 8.5 1.23478 8.5 1.5V7.5" stroke="#D8C72D" stroke-linecap="round" stroke-linejoin="round"/>
</svg>
